<svg width="92" height="84" viewBox="0 0 92 84" fill="none" xmlns="http://www.w3.org/2000/svg">
<path d="M4.69383 18L87.3098 17.9813C89.9004 17.9804 92 15.9387 92 13.4206L91.9982 4.55798C91.9982 2.03994 89.8976 -0.00089168 87.3062 2.92274e-07L4.69016 0.0187337C2.0996 0.0196256 0 2.06135 0 4.57939L0.00183711 13.4411C0.00275477 15.9592 2.10328 18 4.69383 18ZM82.059 6.45164C83.5025 6.45164 84.6725 7.5889 84.6725 8.99198C84.6725 10.395 83.5025 11.5323 82.059 11.5323C80.6155 11.5323 79.4455 10.395 79.4455 8.99198C79.4455 7.5889 80.6155 6.45164 82.059 6.45164ZM72.0712 6.45342C73.5147 6.45342 74.6847 7.59068 74.6847 8.99376C74.6847 10.3968 73.5147 11.5341 72.0712 11.5341C70.6277 11.5341 69.4577 10.3968 69.4577 8.99376C69.4577 7.59068 70.6277 6.45342 72.0712 6.45342ZM62.0834 6.45609C63.5268 6.45609 64.6969 7.59336 64.6969 8.99643C64.6969 10.3995 63.5268 11.5368 62.0834 11.5368C60.6399 11.5368 59.4699 10.3995 59.4699 8.99643C59.4699 7.59336 60.6399 6.45609 62.0834 6.45609ZM7.33027 8.70832C7.33027 7.47651 8.3663 6.46858 9.63359 6.46858L47.9643 6.45967C49.2315 6.45967 50.2685 7.4667 50.2685 8.69851V9.30059C50.2685 10.5315 49.2315 11.5394 47.9652 11.5403L9.63451 11.5493C8.36722 11.5493 7.33027 10.5422 7.33027 9.3104V8.70832Z" fill="#E7742E"/>
<path d="M87.3062 22L4.69016 22.0187C2.0996 22.0196 0 24.0612 0 26.5792L0.00183711 35.4414C0.00275477 37.9593 2.10328 40 4.69383 40L87.3098 39.9813C89.9004 39.9804 92 37.9388 92 35.4208L91.9982 26.5595C91.9982 24.0398 89.8977 21.9991 87.3062 22ZM50.2685 31.2992C50.2685 32.531 49.2315 33.5389 47.9652 33.5389L9.63451 33.5478C8.36722 33.5478 7.33027 32.5408 7.33027 31.3091V30.707C7.33027 29.4753 8.3663 28.4674 9.63359 28.4674L47.9643 28.4585C49.2315 28.4585 50.2685 29.4654 50.2685 30.6972V31.2992ZM62.0834 33.5362C60.6399 33.5362 59.4699 32.399 59.4699 30.996C59.4699 29.593 60.6399 28.4558 62.0834 28.4558C63.5269 28.4558 64.6969 29.593 64.6969 30.996C64.6969 32.399 63.5269 33.5362 62.0834 33.5362ZM72.0712 33.5335C70.6277 33.5335 69.4577 32.3963 69.4577 30.9933C69.4577 29.5903 70.6277 28.4531 72.0712 28.4531C73.5147 28.4531 74.6847 29.5903 74.6847 30.9933C74.6847 32.3963 73.5147 33.5335 72.0712 33.5335ZM82.059 33.5309C80.6155 33.5309 79.4455 32.3936 79.4455 30.9906C79.4455 29.5876 80.6155 28.4504 82.059 28.4504C83.5025 28.4504 84.6725 29.5876 84.6725 30.9906C84.6725 32.3936 83.5025 33.5309 82.059 33.5309Z" fill="#E7742E"/>
<path d="M87.3062 44L4.69016 44.0187C2.0996 44.0196 0 46.0613 0 48.5794L0.00183711 57.4411C0.00275477 59.9592 2.10328 62 4.69383 62L87.3098 61.9813C89.9004 61.9804 92 59.9387 92 57.4206L91.9982 48.5589C91.9982 46.0408 89.8976 44 87.3062 44ZM50.2685 53.3006C50.2685 54.5315 49.2315 55.5394 47.9652 55.5403L9.63451 55.5493C8.36722 55.5493 7.33027 54.5422 7.33027 53.3104V52.7083C7.33027 51.4765 8.3663 50.4686 9.63359 50.4686L47.9643 50.4597C49.2315 50.4597 50.2685 51.4667 50.2685 52.6985V53.3006ZM62.0834 55.5368C60.6399 55.5368 59.4699 54.3995 59.4699 52.9964C59.4699 51.5934 60.6399 50.4561 62.0834 50.4561C63.5268 50.4561 64.6969 51.5934 64.6969 52.9964C64.6969 54.3995 63.5268 55.5368 62.0834 55.5368ZM72.0712 55.535C70.6277 55.535 69.4577 54.3977 69.4577 52.9946C69.4577 51.5916 70.6277 50.4543 72.0712 50.4543C73.5147 50.4543 74.6847 51.5916 74.6847 52.9946C74.6847 54.3977 73.5147 55.535 72.0712 55.535ZM82.059 55.5323C80.6155 55.5323 79.4455 54.395 79.4455 52.992C79.4455 51.5889 80.6155 50.4516 82.059 50.4516C83.5025 50.4516 84.6725 51.5889 84.6725 52.992C84.6725 54.395 83.5025 55.5323 82.059 55.5323Z" fill="#E7742E"/>
<path d="M87.3062 66L4.69016 66.0187C2.0996 66.0196 0 68.0613 0 70.5794L0.00183711 79.4411C0.00275477 81.9592 2.10328 84 4.69383 84L87.3098 83.9813C89.9004 83.9804 92 81.9387 92 79.4206L91.9982 70.558C91.9982 68.0399 89.8976 65.9991 87.3062 66ZM50.2685 75.3006C50.2685 76.5315 49.2315 77.5394 47.9652 77.5403L9.63451 77.5493C8.36722 77.5493 7.33027 76.5422 7.33027 75.3104V74.7083C7.33027 73.4765 8.3663 72.4686 9.63359 72.4686L47.9643 72.4597C49.2315 72.4597 50.2685 73.4667 50.2685 74.6985V75.3006ZM62.0834 77.5368C60.6399 77.5368 59.4699 76.3995 59.4699 74.9964C59.4699 73.5934 60.6399 72.4561 62.0834 72.4561C63.5268 72.4561 64.6969 73.5934 64.6969 74.9964C64.6969 76.3995 63.5268 77.5368 62.0834 77.5368ZM72.0712 77.5341C70.6277 77.5341 69.4577 76.3968 69.4577 74.9938C69.4577 73.5907 70.6277 72.4534 72.0712 72.4534C73.5147 72.4534 74.6847 73.5907 74.6847 74.9938C74.6847 76.3968 73.5147 77.5341 72.0712 77.5341ZM82.059 77.5323C80.6155 77.5323 79.4455 76.395 79.4455 74.992C79.4455 73.5889 80.6155 72.4516 82.059 72.4516C83.5025 72.4516 84.6725 73.5889 84.6725 74.992C84.6725 76.395 83.5025 77.5323 82.059 77.5323Z" fill="#E7742E"/>
</svg>
