<svg width="112" height="82" viewBox="0 0 112 82" fill="none" xmlns="http://www.w3.org/2000/svg">
<path fill-rule="evenodd" clip-rule="evenodd" d="M81.2691 34.6343C80.8012 34.2282 79.6618 34 79 34C78.3382 34 77.1988 34.2282 76.7309 34.6343C76.2629 35.0404 76 35.5912 76 36.1655V52H4.48C3 52 1.81216 52.209 1 53C0.187839 53.791 0 55 0 56.5V77.6365C0 78.7937 0.159837 80.1817 1 81C1.84016 81.8183 3.29183 82 4.48 82H107.52C108.708 82 110.16 81.8183 111 81C111.84 80.1817 112 78.7937 112 77.6365V57C112 54.5 111.84 53.8183 111 53C110.16 52.1817 108.708 52 107.52 52H82V36.1655C82 35.5912 81.7371 35.0404 81.2691 34.6343ZM18.0558 64.4135C17.4257 63.7998 16.5711 63.455 15.6799 63.455C14.7888 63.455 13.9342 63.7998 13.3041 64.4135C12.6739 65.0273 12.3199 65.8597 12.3199 66.7276C12.3199 67.5956 12.6739 68.428 13.3041 69.0417C13.9342 69.6555 14.7888 70.0003 15.6799 70.0003C16.5711 70.0003 17.4257 69.6555 18.0558 69.0417C18.6859 68.428 19.0399 67.5956 19.0399 66.7276C19.0399 65.8597 18.6859 65.0273 18.0558 64.4135ZM95.2 64.5459C95.7941 64.5459 96.3638 64.7758 96.7839 65.1849C97.204 65.5941 97.44 66.1491 97.44 66.7277C97.44 67.3063 97.204 67.8613 96.7839 68.2705C96.3638 68.6796 95.7941 68.9095 95.2 68.9095C94.6059 68.9095 94.0361 68.6796 93.6161 68.2705C93.196 67.8613 92.96 67.3063 92.96 66.7277C92.96 66.1491 93.196 65.5941 93.6161 65.1849C94.0361 64.7758 94.6059 64.5459 95.2 64.5459ZM84 64.5459C84.5941 64.5459 85.1638 64.7758 85.5839 65.1849C86.004 65.5941 86.24 66.1491 86.24 66.7277C86.24 67.3063 86.004 67.8613 85.5839 68.2705C85.1638 68.6796 84.5941 68.9095 84 68.9095C83.4059 68.9095 82.8361 68.6796 82.4161 68.2705C81.996 67.8613 81.76 67.3063 81.76 66.7277C81.76 66.1491 81.996 65.5941 82.4161 65.1849C82.8361 64.7758 83.4059 64.5459 84 64.5459ZM72.8 64.5459C73.3941 64.5459 73.9638 64.7758 74.3839 65.1849C74.804 65.5941 75.04 66.1491 75.04 66.7277C75.04 67.3063 74.804 67.8613 74.3839 68.2705C73.9638 68.6796 73.3941 68.9095 72.8 68.9095C72.2059 68.9095 71.6361 68.6796 71.2161 68.2705C70.796 67.8613 70.56 67.3063 70.56 66.7277C70.56 66.1491 70.796 65.5941 71.2161 65.1849C71.6361 64.7758 72.2059 64.5459 72.8 64.5459ZM61.6 64.5459C62.1941 64.5459 62.7638 64.7758 63.1839 65.1849C63.604 65.5941 63.84 66.1491 63.84 66.7277C63.84 67.3063 63.604 67.8613 63.1839 68.2705C62.7638 68.6796 62.1941 68.9095 61.6 68.9095C61.0059 68.9095 60.4361 68.6796 60.0161 68.2705C59.596 67.8613 59.36 67.3063 59.36 66.7277C59.36 66.1491 59.596 65.5941 60.0161 65.1849C60.4361 64.7758 61.0059 64.5459 61.6 64.5459ZM50.4 64.5459C50.9941 64.5459 51.5638 64.7758 51.9839 65.1849C52.404 65.5941 52.64 66.1491 52.64 66.7277C52.64 67.3063 52.404 67.8613 51.9839 68.2705C51.5638 68.6796 50.9941 68.9095 50.4 68.9095C49.8059 68.9095 49.2361 68.6796 48.8161 68.2705C48.396 67.8613 48.16 67.3063 48.16 66.7277C48.16 66.1491 48.396 65.5941 48.8161 65.1849C49.2361 64.7758 49.8059 64.5459 50.4 64.5459Z" fill="#E7742E"/>
<path d="M74.3884 32C73.848 32 73.3354 31.6585 73.1111 31.0874C72.811 30.3265 73.14 29.4468 73.845 29.1233C77.1106 27.6256 80.8868 27.6256 84.1554 29.1233C84.8604 29.4468 85.1885 30.3265 84.8893 31.0874C84.5892 31.8482 83.7735 32.2027 83.0705 31.8792C81.7928 31.2952 80.4046 30.9931 79 30.9935C77.5954 30.9938 76.2074 31.2966 74.9299 31.8812C74.7534 31.9611 74.5699 32 74.3884 32Z" fill="#E7742E"/>
<path d="M52.6723 12C52.3343 12.0013 52.004 11.9025 51.725 11.7167C51.4461 11.5309 51.2318 11.2669 51.1107 10.9598C50.9895 10.6527 50.9672 10.317 51.0467 9.99727C51.1262 9.67754 51.3038 9.3889 51.5558 9.1697C59.092 2.5578 68.8803 -0.00730777 79.0264 1.56324e-05C89.1713 -0.00606664 98.9584 2.55759 106.496 9.16642C106.805 9.45951 106.985 9.85749 106.999 10.2771C107.013 10.6966 106.86 11.1052 106.572 11.4174C106.283 11.7295 105.882 11.921 105.452 11.9517C105.022 11.9824 104.596 11.8499 104.264 11.5821C97.3376 5.50934 88.3486 2.9941 79.0264 3C69.7045 2.99328 60.7068 5.5091 53.7821 11.5832C53.4793 11.8531 53.083 12.002 52.6723 12Z" fill="#E7742E"/>
<path d="M100.322 17C99.9411 17 99.5628 16.8846 99.2481 16.6478C93.5858 12.3758 86.3916 9.95936 78.9989 9.95936C71.604 9.95936 64.4131 12.3738 58.7497 16.6458C58.4074 16.9028 57.9687 17.0269 57.5276 16.9915C57.0865 16.956 56.6781 16.7638 56.39 16.4561C56.2491 16.3045 56.1426 16.1287 56.0768 15.9389C56.011 15.7492 55.9871 15.5494 56.0066 15.3512C56.0261 15.1529 56.0886 14.9602 56.1903 14.7843C56.2921 14.6084 56.4312 14.4528 56.5994 14.3266C62.8649 9.60211 70.82 7 78.9989 7C87.18 7 95.134 9.60311 101.401 14.3307C102.109 14.8665 102.203 15.8189 101.61 16.4591C101.451 16.6292 101.253 16.7657 101.031 16.8591C100.808 16.9525 100.566 17.0005 100.322 17Z" fill="#E7742E"/>
<path d="M94.4065 22C94.074 22 93.7362 21.9001 93.4494 21.6912C89.261 18.6611 84.2653 16.9961 78.9998 16.9961C73.7386 16.9961 68.745 18.6591 64.5545 21.6882C64.3879 21.8087 64.1972 21.8967 63.9939 21.9469C63.7906 21.9972 63.5786 22.0086 63.3705 21.9807C63.1624 21.9528 62.9623 21.886 62.782 21.7843C62.6017 21.6825 62.4449 21.548 62.3207 21.3884C62.0664 21.0632 61.9569 20.6576 62.0154 20.2577C62.0739 19.8578 62.2958 19.4951 62.634 19.2467C67.3811 15.8149 71.9167 14 78.9988 14C86.0833 14 90.6196 15.8149 95.3657 19.2497C95.704 19.4978 95.9261 19.8603 95.9846 20.2602C96.0431 20.66 95.9335 21.0655 95.679 21.3904C95.3678 21.7911 94.8919 22 94.4065 22Z" fill="#E7742E"/>
<path d="M69.4577 27C68.9746 27 68.5006 26.7461 68.2256 26.2822C67.7956 25.5625 67.9986 24.6108 68.6786 24.1558C71.7647 22.0931 75.3329 21.002 79.001 21C82.6671 21 86.2353 22.0911 89.3214 24.1548C90.0014 24.6098 90.2044 25.5625 89.7744 26.2812C89.3454 27.001 88.4463 27.216 87.7653 26.7611C85.1452 25.009 82.1141 23.9587 79 23.9587C75.8839 23.9587 72.8528 25.01 70.2307 26.7621C70.0029 26.917 69.7335 27 69.4577 27Z" fill="#E7742E"/>
</svg>
