<svg width="111" height="95" viewBox="0 0 111 95" fill="none" xmlns="http://www.w3.org/2000/svg">
<path d="M74.8052 24.0302L73.8354 26.5125C73.6741 26.8327 73.4193 27.0725 73.071 27.2319C72.7228 27.3913 72.3884 27.3904 72.0677 27.2293L67.4976 25.3738C66.5846 26.6539 65.4849 27.7197 64.1984 28.5714L66.1126 33.1451C66.2721 33.5196 66.2712 33.8669 66.1098 34.1871C65.9485 34.5073 65.707 34.7472 65.3856 34.9066L62.8947 35.9422C62.5732 36.1016 62.2388 36.1007 61.8914 35.9395C61.544 35.7783 61.2905 35.5372 61.1308 35.2162L59.2166 30.6424C58.36 30.8005 57.5839 30.8786 56.8883 30.8768C56.2462 30.8751 55.4973 30.793 54.6416 30.6305L52.7032 35.1942C52.5953 35.5145 52.3673 35.7544 52.0191 35.9138C51.6708 36.0732 51.3096 36.0723 50.9355 35.911L48.5304 34.8627C48.1561 34.7549 47.9025 34.5271 47.7697 34.1794C47.6368 33.8317 47.6244 33.471 47.7324 33.0973L49.6706 28.6137C48.3888 27.7019 47.2948 26.6036 46.3885 25.3188L41.8085 27.2306C41.4871 27.3366 41.1527 27.3224 40.8053 27.1879C40.4578 27.0534 40.2043 26.8256 40.0446 26.5046L39.088 24.0173C38.9285 23.6428 38.9161 23.2821 39.0508 22.9351C39.1854 22.5882 39.4402 22.3617 39.8151 22.2558L44.3149 20.3438C44.1566 19.4885 44.0784 18.7134 44.0802 18.0188C44.0819 17.3775 44.1642 16.6029 44.3272 15.6949L39.7571 13.8395C39.4364 13.6783 39.2097 13.4373 39.0768 13.1163C38.9438 12.7954 38.9314 12.448 39.0394 12.0742L40.0894 9.59218C40.2507 9.27199 40.4922 9.03215 40.8136 8.87268C41.1351 8.71321 41.4829 8.71412 41.8571 8.8754L46.4272 10.7309C47.2867 9.45063 48.3597 8.3847 49.6462 7.53308L47.8122 2.95952C47.6527 2.58505 47.6402 2.23768 47.7748 1.91742C47.9095 1.59715 48.1643 1.35735 48.5392 1.19802L51.0301 0.162508C51.3516 0.00303714 51.6861 0.00390854 52.0334 0.165122C52.3808 0.326335 52.6343 0.567458 52.794 0.888491L54.628 5.46205C55.4845 5.30398 56.2606 5.22584 56.9562 5.22766C57.6518 5.22947 58.4275 5.31165 59.2832 5.47418L61.1413 0.910241C61.3029 0.536609 61.5577 0.283452 61.9059 0.150769C62.254 0.018086 62.5884 0.0323163 62.909 0.19346L65.3944 1.24194C65.7687 1.34979 66.0223 1.57755 66.1551 1.92523C66.288 2.27291 66.2737 2.60685 66.1123 2.92705L64.2542 7.49099C65.536 8.40274 66.63 9.50103 67.5363 10.7859L72.0361 8.87388C72.4109 8.76799 72.7721 8.78229 73.1195 8.91679C73.467 9.05128 73.6938 9.27898 73.7999 9.59987L74.8368 12.0873C74.9963 12.4618 75.0087 12.8225 74.8741 13.1695C74.7394 13.5165 74.4846 13.7429 74.1098 13.8488L69.5297 15.7606C69.6879 16.616 69.7662 17.391 69.7643 18.0857C69.7625 18.7804 69.6802 19.555 69.5174 20.4095L74.0875 22.265C74.4616 22.4262 74.7151 22.6674 74.8481 22.9883C74.981 23.3093 74.9667 23.6566 74.8052 24.0302ZM56.9828 10.3576C54.8692 10.3521 53.0479 11.0954 51.519 12.5877C49.99 14.0799 49.2227 15.8947 49.217 18.0322C49.2114 20.1696 49.9691 21.9884 51.4901 23.4886C53.0111 24.9887 54.8284 25.7416 56.942 25.7471C59.0556 25.7526 60.8635 25.0092 62.3657 23.5169C63.8679 22.0246 64.6218 20.2097 64.6275 18.0723C64.6332 15.9349 63.8888 14.1161 62.3946 12.616C60.9003 11.1159 59.0964 10.3631 56.9828 10.3576Z" fill="#E7742E"/>
<path d="M54.3294 51.1934L52.8145 54.6069L58.2852 58.4639L57.5657 61.8816L51 63.2319L51.0115 66.9634L57.5858 68.2738L58.3268 71.6873L52.8804 75.577L54.4169 78.9819L60.9582 77.5176L63.0307 80.3365L59.6453 86.0941L62.4402 88.5822L67.8177 84.5984L70.8634 86.3351L70.1252 92.9653L73.6955 94.1074L76.979 88.2913L80.4704 88.645L82.5071 95L86.2364 94.5979L86.8584 87.9563L90.1936 86.8669L94.6524 91.8488L97.8944 89.9724L95.7474 83.653L98.3487 81.3089L104.459 84.0566L106.654 81.0309L102.11 76.1274L103.527 72.9335L110.232 72.9705L111 69.3189L104.843 66.6782L104.831 63.1863L110.971 60.5071L110.18 56.8598L103.475 56.9382L102.038 53.7529L106.553 48.8208L104.338 45.8094L98.2455 48.5941L95.6299 46.2657L97.7382 39.9335L94.4847 38.077L90.0574 43.086L86.7151 42.0166L86.0515 35.3793L82.3193 35L80.3228 41.3679L76.8328 41.7443L73.5134 35.9482L69.9489 37.1117L70.7286 43.7376L67.6945 45.4929L62.2925 41.5418L59.5135 44.0471L62.9346 49.7847L60.8794 52.6164L54.3294 51.1934ZM85.782 52.702C92.6315 55.307 96.0627 62.9425 93.4442 69.7566C90.8256 76.5708 83.1506 79.9843 76.3011 77.3793C69.4516 74.7742 66.0204 67.1388 68.639 60.3246C71.2575 53.5105 78.9325 50.097 85.782 52.702Z" fill="#E7742E"/>
<path d="M21.9372 31.2535L19.2397 32.0151L19.6329 37.0039L17.3139 38.2247L13.3875 35.0956L11.238 36.8859L13.6317 41.2914L12.0154 43.3497L7.15773 42.0787L5.92733 44.5903L9.90817 47.6512L9.27243 50.1904L4.32363 50.9979L4.22599 53.7939L9.10394 54.9795L9.56028 57.5602L5.37651 60.3058L6.42843 62.9052L11.3611 62.0115L12.8297 64.188L10.134 68.3983L12.1531 70.3501L16.2874 67.5314L18.5155 68.9272L17.7741 73.8721L20.4118 74.8393L23.0335 70.5828L25.6344 70.9575L26.9759 75.7831L29.7763 75.5982L30.4307 70.6402L32.955 69.9277L36.147 73.8002L38.6244 72.4959L37.1995 67.6928L39.2118 66.016L43.7017 68.2651L45.4287 66.0656L42.1695 62.2496L43.3212 59.8997L48.3341 60.1359L49.0125 57.4226L44.4834 55.2515L44.5743 52.6348L49.2421 50.819L48.7553 48.0612L43.7399 47.9122L42.7555 45.4805L46.2715 41.9246L44.7014 39.5979L40.0661 41.4949L38.1762 39.6686L39.9331 34.9886L37.5533 33.4969L34.0999 37.113L31.6309 36.2077L31.3249 31.2131L28.5459 30.8132L26.8711 35.5231L24.2508 35.6965L21.9372 31.2535ZM36.1395 50.0558C37.9182 55.2396 35.1509 60.863 29.9589 62.6158C24.7672 64.3699 19.1175 61.5891 17.3402 56.405C15.5614 51.2212 18.3287 45.5978 23.5207 43.8451C28.7113 42.0926 34.3608 44.8721 36.1395 50.0558Z" fill="#E7742E"/>
</svg>
