<svg width="120" height="76" viewBox="0 0 120 76" fill="none" xmlns="http://www.w3.org/2000/svg">
<path d="M28.0017 1.10382e-05C27.0543 -0.00207642 26.131 0.291961 25.3666 0.839216C24.6021 1.38647 24.0365 2.1583 23.7523 3.04207C23.4681 3.92584 23.4802 4.87531 23.7867 5.7519C24.0933 6.6285 24.6783 7.38636 25.4564 7.91488V11.3994C23.1657 11.723 21.0276 12.4448 19.0932 13.5399L16.2679 9.58247C16.7515 8.28822 16.6243 6.79485 15.7589 5.60015C14.868 4.38057 13.4936 3.73344 12.0936 3.73344C11.2028 3.73344 10.3119 3.98233 9.54835 4.5299C7.53757 5.89883 7.02851 8.61178 8.45387 10.5781C9.31927 11.7976 10.6937 12.4448 12.0936 12.4448L15.0971 16.6262C14.0026 17.6965 13.1372 18.8912 12.3991 20.2103C11.89 20.0112 11.3555 19.9116 10.821 19.9116C9.67562 19.9116 8.53023 20.3347 7.63938 21.1561C5.93403 22.8984 5.93403 25.6362 7.63938 27.3785C8.37751 28.0505 9.26837 28.4238 10.1847 28.623C10.1847 29.967 10.3628 31.2612 10.6428 32.5057L7.30849 33.3769C6.51945 32.7297 5.50133 32.3564 4.45776 32.3564C4.07597 32.3564 3.66872 32.3564 3.28692 32.5057C2.14628 32.8097 1.17574 33.5441 0.58867 34.5476C0.00160052 35.551 -0.153951 36.7414 0.15621 37.857C0.690722 39.8232 2.54879 41.0677 4.45776 41.0677C4.83955 41.0677 5.22135 41.0677 5.6286 40.9184C7.07941 40.5201 8.17389 39.4748 8.63204 38.1805L12.4754 37.1601C13.6208 39.1263 15.148 40.8686 16.9297 42.3122L14.1299 47.2901C12.73 47.4892 11.4573 48.2608 10.7192 49.5799C10.4418 50.0833 10.2684 50.6351 10.2091 51.204C10.1498 51.7729 10.2056 52.3476 10.3734 52.8953C10.5412 53.4431 10.8177 53.9531 11.1871 54.3964C11.5565 54.8397 12.0116 55.2075 12.5263 55.4787C13.0411 55.75 13.6054 55.9195 14.1872 55.9775C14.7689 56.0355 15.3566 55.9809 15.9168 55.8168C16.4769 55.6527 16.9986 55.3824 17.4519 55.0211C17.9052 54.6599 18.2813 54.2149 18.5587 53.7116C19.2714 52.4173 19.2459 50.924 18.6096 49.7044L21.3331 44.8011C23.3948 45.5976 25.6346 46.0456 28.0017 46.0456H28.4599C28.129 46.6927 28.0017 47.4394 28.0017 48.2359C28.2054 50.5257 30.1398 52.268 32.456 52.268H32.7869C35.2558 52.0689 37.0884 49.9782 36.9103 47.5888C36.8085 46.3443 36.1721 45.2491 35.2558 44.5273C36.4521 44.0047 37.5975 43.3327 38.6665 42.5611L44.6225 48.3852C44.368 49.779 44.7752 51.1977 45.8188 52.268C46.7097 53.0893 47.855 53.5125 49.0004 53.5125C50.1458 53.5125 51.2912 53.0893 52.182 52.268C53.8874 50.5257 53.8874 47.7879 52.182 46.0456C51.2912 45.2243 50.1458 44.8011 49.0004 44.8011C48.7459 44.8011 48.4914 44.8011 48.2114 44.8758L42.2554 39.0517C43.5026 37.4338 44.4698 35.592 45.0807 33.6009H47.9059C48.4464 34.3618 49.2214 34.9338 50.1179 35.2336C51.0143 35.5334 51.9853 35.5452 52.8891 35.2673C53.7928 34.9893 54.5821 34.4363 55.1418 33.6887C55.7014 32.9412 56.0021 32.0383 56 31.1119C56.0021 30.1855 55.7014 29.2826 55.1418 28.5351C54.5821 27.7875 53.7928 27.2345 52.8891 26.9565C51.9853 26.6786 51.0143 26.6904 50.1179 26.9902C49.2214 27.29 48.4464 27.8621 47.9059 28.623H45.8188C45.8188 24.7153 44.5462 21.1561 42.2554 18.1942L45.6661 14.8591C45.9461 14.9337 46.2006 14.9337 46.4551 14.9337C47.6005 14.9337 48.7459 14.5106 49.6367 13.6892C51.3421 11.9719 51.3421 9.20913 49.6367 7.46687C48.7459 6.64551 47.6005 6.22239 46.4551 6.22239C45.3097 6.22239 44.1644 6.64551 43.2735 7.46687C42.2299 8.53712 41.8227 9.95582 42.0772 11.3496L38.6665 14.6848C36.3249 12.9674 33.5759 11.8225 30.547 11.3994V7.91488C31.3252 7.38636 31.9102 6.6285 32.2167 5.7519C32.5233 4.87531 32.5354 3.92584 32.2512 3.04207C31.967 2.1583 31.4014 1.38647 30.6369 0.839216C29.8724 0.291961 28.9492 -0.00207642 28.0017 1.10382e-05ZM28.0017 41.0677C20.9767 41.0677 15.2753 35.4925 15.2753 28.623C15.2753 21.7534 20.9767 16.1782 28.0017 16.1782C35.0268 16.1782 40.7282 21.7534 40.7282 28.623C40.7282 35.4925 35.0268 41.0677 28.0017 41.0677ZM24.1838 21.1561C22.0712 21.1561 20.3659 22.8237 20.3659 24.8895C20.3659 26.9554 22.0712 28.623 24.1838 28.623C26.2964 28.623 28.0017 26.9554 28.0017 24.8895C28.0017 22.8237 26.2964 21.1561 24.1838 21.1561ZM33.0923 31.1119C31.6924 31.1119 30.547 32.2319 30.547 33.6009C30.547 34.9698 31.6924 36.0898 33.0923 36.0898C34.4922 36.0898 35.6376 34.9698 35.6376 33.6009C35.6376 32.2319 34.4922 31.1119 33.0923 31.1119Z" fill="#E7742E"/>
<path d="M117.63 39.2C116.318 39.2 115.229 40.288 115.229 41.6H110.299C109.837 37.3191 108.147 33.263 105.432 29.92L108.922 26.432L108.954 26.464C109.882 27.392 111.419 27.392 112.348 26.464C113.276 25.536 113.276 24 112.348 23.072L108.954 19.68C108.502 19.2337 107.892 18.9834 107.257 18.9834C106.622 18.9834 106.012 19.2337 105.56 19.68C104.632 20.608 104.632 22.112 105.528 23.04L102.039 26.528C98.6957 23.8374 94.6515 22.1606 90.3848 21.696V16.8H90.4168C91.7295 16.8 92.818 15.712 92.818 14.4C92.818 13.088 91.7295 12 90.4168 12H85.6145C84.3018 12 83.2133 13.088 83.2133 14.4C83.2133 15.712 84.2698 16.768 85.5825 16.8V21.76C81.1963 22.208 77.1944 23.968 73.9288 26.592L70.4391 23.104L70.4711 23.072C71.3995 22.144 71.3995 20.608 70.4711 19.68C70.0192 19.2337 69.4095 18.9834 68.7742 18.9834C68.139 18.9834 67.5293 19.2337 67.0774 19.68L63.6838 23.072C62.7553 24 62.7553 25.536 63.6838 26.464C64.6122 27.392 66.1169 27.392 67.0454 26.496L70.5351 29.984C67.8407 33.3083 66.1721 37.3443 65.7328 41.6H60.8023C60.8023 40.288 59.7138 39.2 58.4012 39.2C57.0885 39.2 56 40.288 56 41.6V46.4C56 47.712 57.0885 48.8 58.4012 48.8C59.7138 48.8 60.8023 47.712 60.8023 46.4H65.7328C66.213 50.784 67.9418 54.752 70.5351 58.016L67.0454 61.504C66.8227 61.2853 66.559 61.1126 66.2694 60.9958C65.9799 60.8791 65.6702 60.8205 65.3579 60.8235C65.0457 60.8264 64.7372 60.8909 64.4499 61.0132C64.1626 61.1354 63.9023 61.3131 63.6838 61.536C62.7553 62.464 62.7553 64 63.6838 64.928L67.0774 68.32C68.0059 69.248 69.5426 69.248 70.4711 68.32C71.3995 67.392 71.3995 65.856 70.4711 64.928L70.4391 64.896L73.9288 61.408C77.1944 64.032 81.1643 65.76 85.5505 66.24V71.2C84.2378 71.232 83.1813 72.288 83.1813 73.6C83.1813 74.912 84.2698 76 85.5825 76H90.3848C91.6975 76 92.786 74.912 92.786 73.6C92.786 72.288 91.6975 71.2 90.3848 71.2H90.3528V66.272C94.7389 65.824 98.7409 64.064 102.007 61.44L105.496 64.928C104.568 65.856 104.6 67.36 105.528 68.288C106.457 69.216 107.993 69.216 108.922 68.288L112.316 64.896C113.244 63.968 113.244 62.432 112.316 61.504C111.864 61.0577 111.254 60.8074 110.619 60.8074C109.983 60.8074 109.374 61.0577 108.922 61.504L108.89 61.536L105.4 58.048C108.108 54.7006 109.797 50.6467 110.267 46.368H115.197C115.197 47.68 116.285 48.768 117.598 48.768C118.911 48.768 119.999 47.68 119.999 46.368V41.568C120.031 40.288 118.943 39.2 117.63 39.2ZM93.6184 31.2C95.3793 31.2 96.82 32.64 96.82 34.4C96.82 36.16 95.3793 37.6 93.6184 37.6C91.8575 37.6 90.4168 36.16 90.4168 34.4C90.4168 32.64 91.8575 31.2 93.6184 31.2ZM88.0157 47.2C86.2548 47.2 84.8141 45.76 84.8141 44C84.8141 42.24 86.2548 40.8 88.0157 40.8C89.7765 40.8 91.2172 42.24 91.2172 44C91.2172 45.76 89.7765 47.2 88.0157 47.2ZM82.4129 31.2C84.1738 31.2 85.6145 32.64 85.6145 34.4C85.6145 36.16 84.1738 37.6 82.4129 37.6C80.6521 37.6 79.2114 36.16 79.2114 34.4C79.2114 32.64 80.6521 31.2 82.4129 31.2ZM76.8102 47.2C75.0493 47.2 73.6086 45.76 73.6086 44C73.6086 42.24 75.0493 40.8 76.8102 40.8C78.571 40.8 80.0117 42.24 80.0117 44C80.0117 45.76 78.571 47.2 76.8102 47.2ZM82.4129 56.8C80.6521 56.8 79.2114 55.36 79.2114 53.6C79.2114 51.84 80.6521 50.4 82.4129 50.4C84.1738 50.4 85.6145 51.84 85.6145 53.6C85.6145 55.36 84.1738 56.8 82.4129 56.8ZM93.6184 56.8C91.8575 56.8 90.4168 55.36 90.4168 53.6C90.4168 51.84 91.8575 50.4 93.6184 50.4C95.3793 50.4 96.82 51.84 96.82 53.6C96.82 55.36 95.3793 56.8 93.6184 56.8ZM96.0196 44C96.0196 42.24 97.4603 40.8 99.2211 40.8C100.982 40.8 102.423 42.24 102.423 44C102.423 45.76 100.982 47.2 99.2211 47.2C97.4603 47.2 96.0196 45.76 96.0196 44Z" fill="#E7742E"/>
</svg>
